<svg width="277.101" height="155.601" viewBox="0 0 277.101 155.601" xmlns="http://www.w3.org/2000/svg"><g id="svgGroup" stroke-linecap="round" fill-rule="evenodd" font-size="9pt" stroke="#000" stroke-width="0" fill="#25b3b8" style="stroke:#000;stroke-width:0;fill:#25b3b8"><path d="M 105.7 16.2 L 105.7 24.4 L 104.5 128.2 L 104.5 130.2 A 7.138 7.138 0 0 1 104.453 130.969 Q 104.331 132.075 103.9 133.8 A 13.391 13.391 0 0 1 103.572 135.089 A 16.479 16.479 0 0 1 103.3 135.9 Q 102.9 137 102.5 138.2 A 9.383 9.383 0 0 1 101.514 140.012 A 6.912 6.912 0 0 1 99.7 141.8 Q 98.131 143.369 94.64 143.976 A 19.972 19.972 0 0 1 94.5 144 Q 88.9 145.2 84.3 143 Q 81.7 141.4 80.7 139 Q 80.3 138.6 79.9 137.8 Q 79.9 137.4 79.5 136.6 Q 79.1 135.6 78.9 134.5 A 154.022 154.022 0 0 1 78.6 132.794 A 174.638 174.638 0 0 1 78.5 132.2 Q 78.5 131.2 78.4 130.2 Q 78.3 129.2 78.1 128.2 A 7.308 7.308 0 0 1 77.881 127.576 Q 77.787 127.264 77.742 126.988 A 3.034 3.034 0 0 1 77.7 126.5 L 77.7 124.8 A 2.554 2.554 0 0 0 77.88 124.295 Q 78.09 123.472 78.1 121.948 A 23.428 23.428 0 0 0 78.1 121.8 L 78.3 106 L 78.5 80.8 L 67.7 80.8 L 27.1 81 L 26.7 128.2 L 26.7 130.2 A 7.138 7.138 0 0 1 26.653 130.969 Q 26.531 132.075 26.1 133.8 A 13.391 13.391 0 0 1 25.772 135.089 A 16.479 16.479 0 0 1 25.5 135.9 A 87.638 87.638 0 0 0 24.9 137.606 A 98.373 98.373 0 0 0 24.7 138.2 A 9.383 9.383 0 0 1 23.714 140.012 A 6.912 6.912 0 0 1 21.9 141.8 A 5.99 5.99 0 0 1 20.419 142.859 Q 18.996 143.601 16.84 143.976 A 19.972 19.972 0 0 1 16.7 144 Q 11.1 145.2 6.5 143 A 8.989 8.989 0 0 1 4.848 141.703 Q 4.156 141.025 3.49 140.139 A 18.986 18.986 0 0 1 2.7 139 Q 2.393 138.385 2.321 138.007 A 1.128 1.128 0 0 1 2.3 137.8 L 1.7 136.6 Q 1.3 135.6 1.1 134.5 A 154.022 154.022 0 0 1 0.8 132.794 A 174.638 174.638 0 0 1 0.7 132.2 Q 0.7 131.2 0.5 130.2 L 0.1 128.2 Q -0.087 126.7 0.077 125.024 A 17.255 17.255 0 0 1 0.1 124.8 L 0.1 121.8 L 0.3 106 L 0.7 76.6 A 420.494 420.494 0 0 0 0.899 64.249 A 459.884 459.884 0 0 0 0.9 63.4 L 0.9 49.4 Q 0.717 42.8 0.785 37.545 A 197.862 197.862 0 0 1 0.8 36.6 Q 0.897 31.181 1.275 24.45 A 443.222 443.222 0 0 1 1.3 24 L 1.3 23.2 Q 1.5 21.2 1.5 19.1 Q 1.5 17 1.7 14.8 Q 1.9 12.8 2.4 10.9 A 18.985 18.985 0 0 1 3.272 8.363 A 23.132 23.132 0 0 1 3.9 7 A 9.166 9.166 0 0 1 4.676 5.4 A 7.432 7.432 0 0 1 5.5 4.3 Q 6.5 3.2 7.9 2.2 A 15.41 15.41 0 0 1 11.5 0.906 A 13.068 13.068 0 0 1 14.3 0.6 A 44.318 44.318 0 0 1 15.444 0.614 Q 16.35 0.638 17.1 0.7 Q 18.3 0.8 19.5 1 A 6.261 6.261 0 0 1 22.137 1.858 Q 22.95 2.329 23.738 3.053 A 11.837 11.837 0 0 1 24.1 3.4 A 8.02 8.02 0 0 1 25.518 5.001 A 6.747 6.747 0 0 1 26.3 6.6 Q 27.066 8.591 27.362 10.23 A 12.356 12.356 0 0 1 27.5 11.2 Q 27.7 12.6 27.7 13.8 L 27.7 16.2 L 27.7 24.4 L 27.3 57.4 L 31 57.4 Q 33.1 57.4 35.9 57.2 Q 46.3 57.2 56.6 57.4 Q 66.9 57.6 78.3 57.6 L 78.5 57.6 A 1462.949 1462.949 0 0 1 78.556 44.55 A 1270.767 1270.767 0 0 1 78.6 40.4 A 516.412 516.412 0 0 1 78.919 27.65 A 593.876 593.876 0 0 1 79.1 23.2 Q 79.1 21.2 79.2 19.1 Q 79.3 17 79.5 14.8 Q 79.7 12.8 80.2 10.9 A 18.985 18.985 0 0 1 81.072 8.363 A 23.132 23.132 0 0 1 81.7 7 A 5.84 5.84 0 0 1 82.623 4.978 A 5.544 5.544 0 0 1 83.2 4.3 A 13.242 13.242 0 0 1 84.51 3.16 A 17.724 17.724 0 0 1 85.9 2.2 A 12.253 12.253 0 0 1 91.994 0.601 A 14.384 14.384 0 0 1 92.1 0.6 Q 93.7 0.6 95 0.7 Q 96.163 0.79 97.086 0.959 A 13.831 13.831 0 0 1 97.3 1 A 7.749 7.749 0 0 1 100.186 1.987 A 7.317 7.317 0 0 1 101.9 3.4 A 4.707 4.707 0 0 1 103.613 5.314 A 6.79 6.79 0 0 1 104.1 6.6 A 45.567 45.567 0 0 1 104.603 8.203 A 38.961 38.961 0 0 1 104.8 8.9 Q 105.1 10 105.5 11.2 Q 105.7 12.6 105.7 13.8 L 105.7 16.2 Z M 235.759 21.393 A 165.129 165.129 0 0 0 234.9 12.4 A 20.071 20.071 0 0 0 234.502 10.951 A 16.859 16.859 0 0 0 232.3 6.4 A 16.623 16.623 0 0 0 230.548 4.371 A 21.463 21.463 0 0 0 228.1 2.3 A 9.201 9.201 0 0 0 227.221 1.732 Q 225.895 0.978 224.225 0.589 A 16.343 16.343 0 0 0 221.3 0.2 A 23.643 23.643 0 0 0 219.204 0.289 Q 217.539 0.437 216.146 0.833 A 10.738 10.738 0 0 0 213.1 2.2 Q 210.1 4.2 208.5 6.8 Q 206.7 9.8 206.3 13.4 A 543.894 543.894 0 0 1 206.306 13.661 Q 206.403 17.71 206.452 22.244 A 896.408 896.408 0 0 1 206.5 31.8 Q 206.5 42 206.1 52.6 Q 205.7 63.2 205.1 73.3 A 558.503 558.503 0 0 1 204.927 76.091 Q 204.662 80.204 204.362 83.872 A 310.878 310.878 0 0 1 203.7 91 Q 203.3 93.4 202.5 96.2 A 28.122 28.122 0 0 1 201.814 98.296 A 22.379 22.379 0 0 1 200.5 101.2 A 26.204 26.204 0 0 1 199.06 103.728 A 20.729 20.729 0 0 1 192.4 110.3 A 30.073 30.073 0 0 1 188.51 112.307 A 22.897 22.897 0 0 1 182.3 114 A 26.652 26.652 0 0 1 179.355 114.164 A 27.527 27.527 0 0 1 171.5 113 A 14.318 14.318 0 0 1 170.872 112.798 Q 165.866 111.06 162.1 105.6 A 27.042 27.042 0 0 1 161.623 104.882 Q 157.634 98.663 156.5 89.5 Q 155.3 79.8 155.3 67.8 A 103.448 103.448 0 0 1 155.3 67.743 Q 155.302 64.541 155.5 58 Q 155.7 51.4 155.8 43.5 Q 155.9 35.6 155.8 27.2 Q 155.747 22.738 155.609 18.783 A 257.095 257.095 0 0 0 155.3 12.2 Q 155.1 10.2 154.7 8.6 A 9.968 9.968 0 0 0 154.256 7.25 A 12.184 12.184 0 0 0 153.3 5.4 A 12.546 12.546 0 0 0 152.08 4.033 A 13.357 13.357 0 0 0 148.1 1.4 Q 144.9 0 141.4 0 Q 137.9 0 134.7 1.2 A 12.525 12.525 0 0 0 134.088 1.448 A 10.14 10.14 0 0 0 129.7 5 Q 128.1 7.4 127.3 10.3 Q 126.5 13.2 126.2 16.3 Q 125.9 19.4 125.9 22.5 L 125.9 28.2 A 135.47 135.47 0 0 0 125.795 30.876 Q 125.7 34.013 125.7 38 L 125.7 49.9 A 735.133 735.133 0 0 0 125.702 51.419 A 664.806 664.806 0 0 0 125.8 61.7 Q 125.875 65.975 125.894 69.181 A 346.099 346.099 0 0 1 125.9 71.2 Q 125.9 79.4 126.4 87.2 Q 126.9 95 128.9 102.3 Q 130.9 109.6 134.5 116.2 Q 138.1 122.8 144.1 128.6 A 58.612 58.612 0 0 0 146.701 130.929 A 49.709 49.709 0 0 0 161.6 139.7 A 51.469 51.469 0 0 0 179.537 142.841 A 57.351 57.351 0 0 0 181.7 142.8 Q 187.7 142.6 193.8 141 Q 199.9 139.4 205.4 136.5 Q 210.9 133.6 215.5 129.5 Q 220.1 125.4 223.3 120 A 53.643 53.643 0 0 0 225.038 116.927 A 66.858 66.858 0 0 0 227.4 111.9 A 133.502 133.502 0 0 0 228.374 109.531 A 115.249 115.249 0 0 0 230.7 103.2 A 58.556 58.556 0 0 0 230.722 103.124 Q 232.708 96.137 234.1 84.7 A 266.002 266.002 0 0 0 234.887 77.376 A 313.112 313.112 0 0 0 236 60.3 A 473.149 473.149 0 0 0 236.357 41.974 A 461.917 461.917 0 0 0 236.3 34.7 Q 236.188 27.556 235.759 21.393 Z M 273.515 151.784 A 12.117 12.117 0 0 0 277.1 143 Q 277.1 137.8 273.4 134 A 14.936 14.936 0 0 0 273.226 133.824 A 11.945 11.945 0 0 0 264.5 130.2 A 12.29 12.29 0 0 0 260.166 130.954 A 12.408 12.408 0 0 0 255.6 134 Q 251.9 137.8 251.9 143 A 14.52 14.52 0 0 0 251.901 143.162 A 12.121 12.121 0 0 0 255.6 151.9 A 14.789 14.789 0 0 0 255.716 152.015 A 12.117 12.117 0 0 0 264.5 155.6 A 14.52 14.52 0 0 0 264.662 155.599 A 12.121 12.121 0 0 0 273.4 151.9 A 14.789 14.789 0 0 0 273.515 151.784 Z"/></g></svg>